<?xml version="1.0" standalone="no"?>
<!DOCTYPE svg PUBLIC "-//W3C//DTD SVG 20010904//EN"
 "http://www.w3.org/TR/2001/REC-SVG-20010904/DTD/svg10.dtd">
<svg version="1.0" xmlns="http://www.w3.org/2000/svg"
 width="1024.000000pt" height="1024.000000pt" viewBox="0 0 1024.000000 1024.000000"
 preserveAspectRatio="xMidYMid meet">
<metadata>
Created by potrace 1.11, written by Peter Selinger 2001-2013
</metadata>
<g transform="translate(0.000000,1024.000000) scale(0.100000,-0.100000)"
fill="#000000" stroke="none">
<path d="M2660 8955 c-95 -17 -102 -19 -174 -45 -144 -52 -263 -129 -384 -249
-169 -168 -266 -357 -300 -581 -4 -25 -7 -1375 -7 -3000 l0 -2955 28 -100 c40
-148 114 -292 202 -395 81 -96 217 -211 302 -257 12 -6 35 -18 50 -26 57 -31
106 -49 201 -75 l97 -27 2615 0 2615 0 80 27 c106 36 193 90 274 170 78 77
131 163 169 273 l27 80 0 3310 0 3310 -27 78 c-82 241 -268 408 -513 463 -89
20 -5144 18 -5255 -1z m4795 -699 c125 -33 206 -99 262 -214 l38 -76 3 -2120
c1 -1322 -1 -2140 -7 -2172 -23 -123 -107 -230 -227 -286 l-69 -33 -1120 -2
c-4056 -9 -3641 -6 -3730 -30 -44 -12 -88 -25 -98 -28 -16 -7 -17 103 -15
2351 l3 2359 26 56 c23 50 74 111 121 148 10 7 43 24 75 37 l58 23 2315 1
c1908 0 2324 -3 2365 -14z m53 -5631 c100 -30 174 -96 221 -195 36 -78 36
-203 0 -285 -21 -48 -69 -103 -122 -141 -96 -69 85 -64 -2508 -62 l-2344 3
-67 33 c-286 141 -251 552 55 647 34 11 477 14 2378 14 2074 1 2341 -1 2387
-14z"/>
<path d="M4534 6986 c-35 -16 -72 -63 -81 -103 -4 -16 -7 -419 -7 -898 -1
-863 -1 -870 20 -910 40 -77 118 -104 201 -70 20 9 120 68 222 131 102 64 195
121 206 127 10 7 49 31 85 53 60 38 438 273 713 443 144 89 172 112 199 164
44 88 4 179 -114 257 -33 22 -61 40 -63 40 -1 0 -135 82 -296 183 -276 171
-404 250 -467 288 -15 9 -108 67 -207 129 -99 62 -204 126 -232 142 -63 34
-135 44 -179 24z"/>
</g>
</svg>
