<?xml version="1.0" standalone="no"?>
<!DOCTYPE svg PUBLIC "-//W3C//DTD SVG 20010904//EN"
 "http://www.w3.org/TR/2001/REC-SVG-20010904/DTD/svg10.dtd">
<svg version="1.0" xmlns="http://www.w3.org/2000/svg"
 width="1024.000000pt" height="1024.000000pt" viewBox="0 0 1024.000000 1024.000000"
 preserveAspectRatio="xMidYMid meet">
<metadata>
Created by potrace 1.11, written by Peter Selinger 2001-2013
</metadata>
<g transform="translate(0.000000,1024.000000) scale(0.100000,-0.100000)"
fill="#000000" stroke="none">
<path d="M2660 8955 c-215 -37 -394 -131 -558 -294 -169 -168 -266 -357 -300
-581 -4 -25 -7 -1375 -7 -3000 l0 -2955 28 -100 c40 -148 114 -292 202 -395
81 -96 217 -211 302 -257 12 -6 35 -18 50 -26 57 -31 106 -49 201 -75 l97 -27
2615 0 2615 0 80 27 c106 36 193 90 274 170 78 77 131 163 169 273 l27 80 0
3310 0 3310 -27 78 c-82 241 -268 408 -513 463 -87 19 -5142 18 -5255 -1z
m4795 -699 c125 -33 206 -99 262 -214 l38 -76 3 -2120 c1 -1322 -1 -2140 -7
-2172 -23 -123 -107 -230 -227 -286 l-69 -33 -1120 -2 c-4056 -9 -3641 -6
-3730 -30 -44 -12 -88 -25 -98 -28 -16 -7 -17 103 -15 2351 l3 2359 26 56 c23
50 74 111 121 148 10 7 43 24 75 37 l58 23 2315 1 c1908 0 2324 -3 2365 -14z
m53 -5631 c100 -30 174 -96 221 -195 36 -78 36 -203 0 -285 -21 -48 -69 -103
-122 -141 -96 -69 85 -64 -2508 -62 l-2344 3 -67 33 c-286 141 -251 552 55
647 34 11 477 14 2378 14 2074 1 2341 -1 2387 -14z"/>
<path d="M4672 7173 c-37 -7 -394 -214 -419 -242 -22 -25 -44 -101 -38 -130 2
-9 12 -41 23 -71 71 -205 -67 -415 -288 -439 -37 -4 -78 -14 -92 -23 -62 -41
-97 -205 -92 -428 4 -199 25 -289 77 -346 28 -31 39 -35 96 -40 35 -3 88 -14
117 -25 91 -34 180 -137 200 -232 10 -46 5 -134 -11 -177 -26 -74 -28 -125 -7
-172 28 -62 15 -53 312 -218 146 -82 217 -79 310 12 93 92 196 151 262 150 61
-1 160 -60 256 -151 80 -77 175 -91 261 -37 20 13 61 36 91 53 210 117 240
136 259 166 32 53 36 98 12 176 -28 91 -30 124 -14 194 35 156 147 249 314
261 91 7 132 53 154 171 28 155 27 397 -4 515 -15 58 -27 84 -56 113 -30 30
-40 33 -130 42 -101 10 -208 84 -251 175 -43 88 -48 164 -18 255 32 96 23 175
-26 226 -17 18 -323 193 -375 215 -70 29 -149 13 -210 -43 -87 -78 -181 -136
-241 -147 -61 -12 -166 41 -268 133 -69 62 -123 79 -204 64z m593 -828 c163
-56 290 -196 329 -362 13 -57 14 -173 1 -212 -3 -10 -8 -30 -10 -43 -10 -50
-72 -153 -125 -207 -316 -318 -853 -80 -835 371 9 231 177 426 405 471 47 10
185 -1 235 -18z"/>
</g>
</svg>
